HIERARCHY
ROOT Hips
{
	OFFSET 0.000000 0.000000 0.000000 
	CHANNELS 6 Xposition Yposition Zposition Zrotation Yrotation Xrotation
	JOINT LeftUpLeg
	{
		OFFSET 1.363060 -1.794630 0.839290 
		CHANNELS 3 Zrotation Yrotation Xrotation
		JOINT LeftLeg
		{
			OFFSET 2.448110 -6.726130 0.000000 
			CHANNELS 3 Zrotation Yrotation Xrotation
			JOINT LeftFoot
			{
				OFFSET 2.562200 -7.039590 0.000000 
				CHANNELS 3 Zrotation Yrotation Xrotation
				JOINT LeftToeBase
				{
					OFFSET 0.157640 -0.433110 2.322550 
					CHANNELS 3 Zrotation Yrotation Xrotation
					End Site
					{
						OFFSET 0.000000 0.000000 0.000000 
					}
				}
			}
		}
	}
	JOINT RightUpLeg
	{
		OFFSET -1.305520 -1.794630 0.839290 
		CHANNELS 3 Zrotation Yrotation Xrotation
		JOINT RightLeg
		{
			OFFSET -2.542530 -6.985550 0.000000 
			CHANNELS 3 Zrotation Yrotation Xrotation
			JOINT RightFoot
			{
				OFFSET -2.568260 -7.056230 0.000000 
				CHANNELS 3 Zrotation Yrotation Xrotation
				JOINT RightToeBase
				{
					OFFSET -0.164730 -0.452590 2.363150 
					CHANNELS 3 Zrotation Yrotation Xrotation
					End Site
					{
						OFFSET 0.000000 0.000000 0.000000 
					}
				}
			}
		}
	}
	JOINT Spine
	{
		OFFSET 0.028270 2.035590 -0.193380 
		CHANNELS 3 Zrotation Yrotation Xrotation
		JOINT Spine1
		{
			OFFSET 0.056720 2.048850 -0.042750 
			CHANNELS 3 Zrotation Yrotation Xrotation
			JOINT Neck1
			{
				OFFSET -0.054170 1.746240 0.172020 
				CHANNELS 3 Zrotation Yrotation Xrotation
				JOINT Head
				{
					OFFSET 0.104070 1.761360 -0.123970 
					CHANNELS 3 Zrotation Yrotation Xrotation
					End Site
					{
						OFFSET 0.000000 0.000000 0.000000 
					}
				}
			}
			JOINT LeftArm
			{
				OFFSET 3.362410 1.200890 -0.311210 
				CHANNELS 3 Zrotation Yrotation Xrotation
				JOINT LeftForeArm
				{
					OFFSET 4.983000 -0.000000 -0.000000 
					CHANNELS 3 Zrotation Yrotation Xrotation
					JOINT LeftHand
					{
						OFFSET 3.483560 -0.000000 -0.000000 
						CHANNELS 3 Zrotation Yrotation Xrotation
						JOINT LeftHandIndex1
						{
							OFFSET 0.715260 -0.000000 -0.000000 
							CHANNELS 3 Zrotation Yrotation Xrotation
							End Site
							{
								OFFSET 0.000000 0.000000 0.000000 
							}
						}
					}
				}
			}
			JOINT RightArm
			{
				OFFSET -3.136600 1.374050 -0.404650 
				CHANNELS 3 Zrotation Yrotation Xrotation
				JOINT RightForeArm
				{
					OFFSET -5.241900 -0.000000 -0.000000 
					CHANNELS 3 Zrotation Yrotation Xrotation
					JOINT RightHand
					{
						OFFSET -3.444170 -0.000000 -0.000000 
						CHANNELS 3 Zrotation Yrotation Xrotation
						JOINT RightHandIndex1
						{
							OFFSET -0.622530 -0.000000 -0.000000 
							CHANNELS 3 Zrotation Yrotation Xrotation
							End Site
							{
								OFFSET 0.000000 0.000000 0.000000 
							}
						}
					}
				}
			}
		}
	}
}
MOTION
Frames: 18
Frame Time: 0.041667
1.314351 19.264790 28.672702 -3.846039 3.121073 10.655415 -0.164021 -3.871185 -14.766087 -1.213502 8.349717 20.859148 0.873626 6.543421 19.303351 0.309000 3.573700 9.880300 8.953323 -0.802853 -15.917486 1.571448 -7.988709 19.504135 1.441962 -9.197006 11.738727 -0.093800 -1.975400 5.437600 2.087900 0.128459 -3.382715 0.762281 -0.047110 -2.769651 4.359592 -0.255405 7.243085 -0.020400 -0.244500 9.998200 -74.855347 6.177004 32.675205 16.409141 -28.698055 -8.140781 -0.789552 -2.644302 7.272618 -7.125000 0.000000 0.000000 71.759551 -2.841910 27.858772 -14.388025 28.939237 -6.293418 3.121730 0.215833 6.901584 7.125000 0.000000 0.000000 
1.318446 19.260048 28.689406 -3.895173 3.136540 10.751043 -0.126145 -3.936120 -14.765179 -1.199711 8.362365 20.894440 0.838082 6.578267 19.142025 0.284700 3.431500 9.482400 8.988997 -0.879779 -15.969684 1.585839 -7.972272 19.476260 1.350137 -9.002903 11.710197 -0.087300 -1.905800 5.245400 2.088086 0.175212 -3.376570 0.704878 -0.022520 -2.770339 4.289149 -0.263630 7.151870 -0.082900 -0.254200 9.920300 -74.867066 6.241253 32.558166 16.380618 -28.678492 -8.130771 -0.797512 -2.659408 7.305923 -7.125000 0.000000 0.000000 71.751533 -2.911081 27.810561 -14.443734 29.002810 -6.328452 3.122902 0.220619 6.906831 7.125000 0.000000 0.000000 
1.321464 19.255414 28.704386 -3.952572 3.137943 10.838086 -0.078522 -3.960009 -14.780645 -1.183346 8.375056 20.937483 0.820128 6.582958 19.003483 0.271700 3.352900 9.262800 9.033987 -0.878767 -15.988265 1.598443 -7.961081 19.449025 1.312518 -8.913913 11.641410 -0.079700 -1.820900 5.010900 2.097413 0.260208 -3.365458 0.548289 0.035970 -2.882646 3.688249 -0.364125 6.802350 -0.687400 -0.332500 9.531600 -74.859389 6.339219 32.445452 16.343821 -28.669810 -8.120531 -0.809714 -2.648463 7.316606 -7.125000 0.000000 0.000000 71.716527 -3.029303 27.806367 -14.489547 29.048956 -6.354326 3.126290 0.228919 6.838965 7.125000 0.000000 0.000000 
1.322541 19.250025 28.720874 -4.022049 3.104396 10.910815 -0.027491 -3.966609 -14.806660 -1.166349 8.395627 20.983832 0.799652 6.601311 18.867295 0.257800 3.266900 9.022800 9.072095 -0.755590 -15.936301 1.607522 -7.949723 19.428028 1.329731 -8.914575 11.485058 -0.067900 -1.681200 4.625400 2.093543 0.290838 -3.363926 0.687142 0.034454 -2.761265 4.282199 -0.269169 7.066760 -0.065100 -0.265800 9.881800 -74.889824 6.352921 32.303641 16.337911 -28.647640 -8.117877 -0.822723 -2.676063 7.336054 -7.125000 0.000000 0.000000 71.643680 -2.989467 27.774654 -14.522864 29.090094 -6.379084 3.124511 0.219410 6.789277 7.125000 0.000000 0.000000 
1.326637 19.245715 28.737147 -4.039313 3.091743 11.010847 -0.029795 -3.922229 -14.862774 -1.153197 8.408845 21.031660 0.794436 6.588183 18.779093 0.243600 3.176100 8.769500 9.072664 -0.735327 -15.953896 1.614926 -7.940936 19.407340 1.308462 -8.861789 11.428600 -0.058000 -1.553900 4.274400 2.100322 0.333098 -3.354031 0.533046 0.074475 -2.864120 3.706965 -0.313812 6.710083 -0.652200 -0.312600 9.462600 -74.857531 6.506576 32.127373 16.309750 -28.660547 -8.123487 -0.835945 -2.676525 7.345840 -7.125000 0.000000 0.000000 71.683735 -3.118348 27.789254 -14.581115 29.150476 -6.407514 3.123431 0.227217 6.788731 7.125000 0.000000 0.000000 
1.329977 19.240757 28.755576 -4.009186 3.090358 11.074684 -0.070190 -3.945312 -14.856360 -1.146630 8.428515 21.082445 0.777055 6.584251 18.621637 0.232400 3.102600 8.564500 9.032456 -0.706611 -15.926473 1.617638 -7.934859 19.393358 1.296044 -8.824301 11.347017 -0.056300 -1.530800 4.210500 2.101151 0.375106 -3.341740 0.548588 0.098346 -2.847121 3.642922 -0.325573 6.635403 -0.711900 -0.325200 9.408300 -74.875323 6.549410 32.000508 16.273208 -28.634762 -8.108410 -0.842290 -2.678491 7.380902 -7.125000 0.000000 0.000000 71.612414 -3.110641 27.741731 -14.591368 29.156540 -6.417130 3.123762 0.229710 6.769481 7.125000 0.000000 0.000000 
1.333534 19.236554 28.773897 -4.031288 3.091081 11.128391 -0.061383 -3.996332 -14.837368 -1.136879 8.442842 21.116649 0.743925 6.627515 18.528078 0.225900 3.059300 8.443900 9.049863 -0.701449 -15.918463 1.619476 -7.936041 19.399076 1.284062 -8.785232 11.267142 -0.053700 -1.495000 4.112000 2.105525 0.365095 -3.331534 0.567622 0.092533 -2.793110 3.680324 -0.301337 6.658648 -0.680400 -0.310400 9.443100 -74.871121 6.633166 31.768828 16.246475 -28.624649 -8.109205 -0.853741 -2.679943 7.400778 -7.125000 0.000000 0.000000 71.606175 -3.111107 27.780288 -14.640946 29.206018 -6.441168 3.120863 0.234786 6.732683 7.125000 0.000000 0.000000 
1.337952 19.233537 28.792110 -4.046818 3.074258 11.189827 -0.059770 -4.061020 -14.813545 -1.128322 8.455704 21.146494 0.702516 6.687794 18.446274 0.226600 3.064300 8.457800 9.054118 -0.698506 -15.916696 1.620145 -7.939030 19.409540 1.266821 -8.741603 11.222629 -0.051900 -1.470800 4.045300 2.104895 0.378974 -3.323344 0.548877 0.100960 -2.792085 3.682823 -0.266547 6.599243 -0.678500 -0.293100 9.375300 -74.854129 6.749500 31.580464 16.214712 -28.614333 -8.107257 -0.859479 -2.692417 7.417249 -7.125000 0.000000 0.000000 71.570348 -3.097125 27.832597 -14.614496 29.183369 -6.427110 3.127135 0.246218 6.717294 7.125000 0.000000 0.000000 
1.340431 19.230519 28.807952 -4.061625 2.995259 11.244661 -0.073584 -3.945767 -14.874320 -1.122265 8.465775 21.182098 0.739948 6.616563 18.454186 0.224100 3.047000 8.409700 9.048970 -0.590421 -15.877089 1.620111 -7.943053 19.423795 1.280745 -8.756414 11.172870 -0.053800 -1.496500 4.116000 2.104386 0.405280 -3.318043 0.543740 0.116788 -2.817125 3.672826 -0.237916 6.565099 -0.699200 -0.276900 9.339400 -74.814326 6.880164 31.378930 16.179964 -28.603827 -8.105270 -0.868685 -2.695894 7.363018 -7.125000 0.000000 0.000000 71.586666 -3.102261 27.885319 -14.640346 29.206427 -6.437211 3.129038 0.248482 6.684299 7.125000 0.000000 0.000000 
1.343664 19.227502 28.824871 -4.036250 2.975963 11.286968 -0.123143 -3.736954 -14.965190 -1.131967 8.467561 21.217368 0.900408 6.323885 18.567371 0.228500 3.077100 8.493400 9.025951 -0.541091 -15.849740 1.614223 -7.948926 19.444417 1.303252 -8.790205 11.122110 -0.058900 -1.566300 4.308600 2.104777 0.414466 -3.312636 0.556905 0.124314 -2.846653 3.670675 -0.235666 6.530479 -0.704200 -0.276300 9.303300 -74.811551 6.990898 31.297688 16.056483 -28.495826 -8.016491 -0.958816 -2.575743 6.831439 -7.125000 0.000000 0.000000 71.538180 -3.080550 27.940339 -14.615309 29.178173 -6.422184 3.132738 0.237401 6.663744 7.125000 0.000000 0.000000 
1.347328 19.225238 28.843839 -4.026548 2.911233 11.344906 -0.166387 -3.571529 -15.035874 -1.134164 8.472870 21.249078 0.987447 6.161893 18.615573 0.223300 3.042000 8.395700 9.006233 -0.517108 -15.843872 1.610831 -7.953920 19.464737 1.294464 -8.770579 11.133050 -0.063400 -1.624100 4.467800 2.096304 0.483928 -3.303250 0.534193 0.159235 -2.842547 3.676621 -0.254413 6.514759 -0.695900 -0.285900 9.310200 -74.758317 7.015567 31.208317 15.965776 -28.413331 -7.964677 -0.967503 -2.576073 6.832196 -7.125000 0.000000 0.000000 71.543722 -3.003444 27.796874 -14.553711 29.108583 -6.395400 3.129610 0.216832 6.785627 7.125000 0.000000 0.000000 
1.352286 19.224915 28.864099 -4.012998 2.911088 11.392866 -0.181780 -3.575761 -15.024656 -1.139301 8.474537 21.260543 1.027007 6.089879 18.662794 0.223600 3.043800 8.400800 8.987903 -0.510789 -15.833306 1.606223 -7.960313 19.480462 1.303270 -8.788737 11.133159 -0.065500 -1.651500 4.543300 2.092664 0.515427 -3.295782 0.522325 0.175185 -2.855997 3.679525 -0.270461 6.474592 -0.684700 -0.296300 9.279900 -74.727299 7.072498 31.120154 15.875522 -28.333878 -7.911162 -0.989851 -2.565001 6.821025 -7.125000 0.000000 0.000000 71.509714 -2.952514 27.723023 -14.534170 29.083095 -6.390730 3.137450 0.237681 6.797060 7.125000 0.000000 0.000000 
1.355195 19.224700 28.885545 -4.030655 2.898285 11.435460 -0.168574 -3.536662 -15.017952 -1.144619 8.468686 21.248454 1.070635 6.023433 18.741517 0.218200 3.007300 8.299100 9.000101 -0.441743 -15.786377 1.603274 -7.967423 19.489171 1.352690 -8.880822 11.084964 -0.069400 -1.699600 4.676200 2.095342 0.519483 -3.283417 0.524199 0.178270 -2.831321 3.672013 -0.234919 6.444101 -0.689000 -0.280000 9.243400 -74.673566 7.121222 30.952435 15.771339 -28.248056 -7.858813 -1.000256 -2.574704 6.816639 -7.125000 0.000000 0.000000 71.476610 -2.839377 27.738177 -14.437898 28.981114 -6.339818 3.144870 0.224977 6.842654 7.125000 0.000000 0.000000 
1.358321 19.225454 28.906022 -4.005371 2.852987 11.502419 -0.186755 -3.512216 -15.026232 -1.154222 8.460607 21.230888 1.107351 5.965654 18.813168 0.219300 3.014600 8.319300 8.951490 -0.305807 -15.734569 1.600786 -7.967317 19.477989 1.419644 -9.012181 11.053328 -0.076300 -1.781500 4.902300 2.093133 0.522778 -3.280575 0.526047 0.182779 -2.843028 3.660177 -0.235230 6.435506 -0.710100 -0.278200 9.227100 -74.609816 7.229931 30.783634 15.669451 -28.171536 -7.809990 -1.019499 -2.578204 6.794333 -7.125000 0.000000 0.000000 71.485359 -2.776070 27.765360 -14.396374 28.932250 -6.315167 3.150381 0.231315 6.872216 7.125000 0.000000 0.000000 
1.361446 19.228148 28.928976 -3.938803 2.843433 11.575679 -0.209081 -3.726031 -14.933912 -1.158270 8.460572 21.205931 0.999883 6.159878 18.759054 0.212200 2.965700 8.183300 8.860047 -0.167936 -15.676199 1.597256 -7.963915 19.448575 1.507074 -9.190963 11.022584 -0.085000 -1.880900 5.176700 2.083665 0.561239 -3.280997 0.534890 0.202873 -2.879098 3.675186 -0.239953 6.420223 -0.682500 -0.282900 9.215500 -74.537561 7.297986 30.710319 15.527340 -28.046610 -7.726734 -1.029174 -2.563063 6.851389 -7.125000 0.000000 0.000000 71.483049 -2.715704 27.615503 -14.287487 28.817041 -6.266158 3.155218 0.199608 6.973847 7.125000 0.000000 0.000000 
1.364032 19.229657 28.951823 -3.909840 2.816856 11.659441 -0.234247 -3.626709 -14.990369 -1.171952 8.448451 21.186944 1.086491 6.016733 18.888351 0.215700 2.989600 8.249800 8.813370 -0.023276 -15.627793 1.592315 -7.963250 19.435901 1.602242 -9.375438 10.972433 -0.088600 -1.919500 5.283300 2.078870 0.576720 -3.273560 0.533348 0.213264 -2.853037 3.678052 -0.241568 6.393861 -0.677200 -0.284300 9.189600 -74.455483 7.308151 30.562596 15.392365 -27.925850 -7.655026 -1.028901 -2.594171 6.904551 -7.125000 0.000000 0.000000 71.478416 -2.569269 27.593408 -14.202345 28.721652 -6.224734 3.175596 0.218598 6.953762 7.125000 0.000000 0.000000 
1.365649 19.232028 28.974994 -3.949776 2.791948 11.727813 -0.176757 -3.674982 -14.975789 -1.168660 8.442781 21.154562 1.036382 6.155333 19.062118 0.240000 3.152400 8.703500 8.820577 0.239438 -15.519984 1.589883 -7.969258 19.427977 1.747397 -9.646613 10.843605 -0.102300 -2.062300 5.677800 2.080777 0.604322 -3.259010 0.526627 0.227912 -2.783121 3.651076 -0.257828 6.386979 -0.700900 -0.294200 9.182200 -74.349559 7.284091 30.482384 15.241648 -27.788568 -7.567478 -1.043049 -2.598509 6.942072 -7.125000 0.000000 0.000000 71.467238 -2.411332 27.529271 -14.078813 28.588844 -6.162153 3.178005 0.198212 7.044584 7.125000 0.000000 0.000000 
1.369744 19.233752 29.001182 -3.858575 2.815231 11.823797 -0.264656 -3.548664 -15.053415 -1.184931 8.436549 21.158627 1.133403 5.980797 19.179938 0.234600 3.117100 8.604900 8.733083 0.289685 -15.518430 1.575893 -7.973487 19.431878 1.837973 -9.830346 10.831539 -0.109400 -2.132800 5.872700 2.080277 0.552962 -3.260467 0.560798 0.208531 -2.780696 3.644481 -0.227755 6.372442 -0.707300 -0.279700 9.137100 -74.288499 7.379821 30.266327 15.075373 -27.650605 -7.480968 -1.053281 -2.582078 7.052230 -7.125000 0.000000 0.000000 71.475447 -2.314971 27.507203 -13.971060 28.471410 -6.105173 3.184135 0.203637 7.171861 7.125000 0.000000 0.000000 
